# AST/ASF file generated using VICON BodyLanguage
# -----------------------------------------------
:version 1.10
:name VICON
:units
  mass 1.0
  length 0.45
  angle deg
:documentation
   .ast/.asf automatically generated from VICON data using
   VICON BodyBuilder and BodyLanguage model FoxedUp or BRILLIANT.MOD
:root
   order TX TY TZ RX RY RZ
   axis XYZ
   position 0 0 0  
   orientation 0 0 0 
:bonedata
  begin
     id 1 
     name lhipjoint
     direction 0.547975 -0.797114 0.253638 
     length 2.36201 
     axis 0 0 0  XYZ
  end
  begin
     id 2 
     name lfemur
     direction 0.34202 -0.939693 0  
     length 7.69075  
     axis 0 0 20  XYZ
    dof rx ry rz
    limits (-160.0 20.0)
           (-70.0 70.0)
           (-60.0 70.0)
  end
  begin
     id 3 
     name ltibia
     direction 0.34202 -0.939693 0   
     length 7.91399   
     axis 0 0 20   XYZ
    dof rx
    limits (-10.0 170.0)
  end
  begin
     id 4 
     name lfoot
     direction 0.0705293 -0.193778 0.978507   
     length 2.13618   
     axis -90 7.62852e-016 20   XYZ
    dof rx rz
    limits (-45.0 90.0)
           (-70.0 20.0)
  end
  begin
     id 5 
     name ltoes
     direction 1.53592e-011 -4.21925e-011 1   
     length 1.07518   
     axis -90 7.62852e-016 20   XYZ
    dof rx
    limits (-90.0 20.0)
  end
  begin
     id 6 
     name rhipjoint
     direction -0.57 -0.782963 0.249136   
     length 2.4047  
     axis 0 0 0  XYZ 
  end
  begin
     id 7 
     name rfemur
     direction -0.34202 -0.939693 0   
     length 7.51486   
     axis 0 0 -20   XYZ
    dof rx ry rz
    limits (-160.0 20.0)
           (-70.0 70.0)
           (-70.0 60.0)
  end
  begin
     id 8 
     name rtibia
     direction -0.34202 -0.939693 0   
     length 8.08317   
     axis 0 0 -20   XYZ
    dof rx
    limits (-10.0 170.0)
 end
 begin
     id 9 
     name rfoot
     direction -0.104954 -0.281256 0.953876   
     length 2.30343  
     axis -90 -7.62852e-016 -20   XYZ
    dof rx rz
    limits (-45.0 90.0)
           (-20.0 70.0)
  end
  begin
     id 10 
     name rtoes
     direction -1.53556e-011 -4.21922e-011 1   
     length 1.14803   
     axis -90 -7.62852e-016 -20   XYZ
    dof rx
    limits (-90.0 20.0)
  end
  begin
     id 11 
     name lowerback
     direction -0.0152855 0.99353 -0.11254   
     length 2.05311   
     axis 0 0 0   XYZ
    dof rx ry rz
    limits (-20.0 45.0)
           (-30.0 30.0)
           (-30.0 30.0)
  end
  begin
     id 12 
     name upperback
     direction -0.00157509 0.999443 -0.033332   
     length 2.06353   
     axis 0 0 0   XYZ
    dof rx ry rz
    limits (-20.0 45.0)
           (-30.0 30.0)
           (-30.0 30.0)
  end
  begin
     id 13 
     name thorax
     direction 0.00577788 0.999804 0.0189484   
     length 2.08472   
     axis 0 0 0   XYZ
    dof rx ry rz
    limits (-20.0 45.0)
           (-30.0 30.0)
           (-30.0 30.0)
  end
  begin
     id 14 
     name lowerneck
     direction -1.09301e-005 0.994719 0.10264   
     length 1.76249   
     axis 0 0 0   XYZ
    dof rx ry rz
    limits (-20.0 45.0)
           (-30.0 30.0)
           (-30.0 30.0)
  end
  begin
     id 15 
     name upperneck
     direction 0.0495018 0.988526 -0.142706   
     length 1.77897   
     axis 0 0 0   XYZ
    dof rx ry rz
    limits (-20.0 45.0)
           (-30.0 30.0)
           (-30.0 30.0)
  end
  begin
     id 16
     name head
     direction 0.0142736 0.998114 -0.0597101  
     length 1.78934  
     axis 0 0 0   XYZ
    dof rx ry rz
    limits (-20.0 45.0)
           (-30.0 30.0)
           (-30.0 30.0)
  end
  begin
     id 17 
     name lclavicle
     direction 0.918111 0.396107 -0.0130883  
     length 3.37276  
     axis 0 0 0   XYZ
    dof ry rz
    limits (-20.0 10.0)
           (0.0 20.0)
  end
  begin
     id 18 
     name lhumerus
     direction 1 -4.48975e-011 -3.26108e-027   
     length 5.34298   
     axis 180 -30 -90   XYZ
    dof rx ry rz
    limits (-60.0 90.0)
           (-90.0 90.0)
           (-90.0 90.0)
  end
  begin
     id 19
     name lradius
     direction 1 -4.48964e-011 -8.84413e-028   
     length 3.67262   
     axis 180 -30 -90   XYZ
    dof rx
    limits (-10.0 170.0)
  end
  begin
     id 20
     name lwrist
     direction 1 -4.48991e-011 -1.24264e-027   
     length 1.83631   
     axis -2.17013e-015 90 90   XYZ
    dof ry
    limits (-180.0 0.0)
 end
  begin
     id 21 
     name lhand
     direction 1 -4.48855e-011 -2.48528e-027   
     length 0.599298   
     axis 1.58582e-015 90 90   XYZ
    dof rx rz
    limits (-90.0 90.0)
           (-45.0 45.0)
  end
  begin
     id 22 
     name lfingers
     direction 1 -4.48811e-011 -4.97056e-027   
     length 0.48317   
     axis 3.17164e-015 90 90   XYZ
    dof rx
    limits (0.0 90.0)
  end
  begin
     id 23
     name lthumb
     direction 0.707107 -6.34882e-011 0.707107   
     length 0.693738   
     axis -90 45 2.85299e-015   XYZ
    dof rx rz
    limits (-45.0 45.0)
           (-45.0 45.0)
  end
  begin
     id 24 
     name rclavicle
     direction -0.920511 0.384752 -0.0680135   
     length 3.43787  
     axis 0 0 0   XYZ 
    dof ry rz
    limits (-10.0 20.0)
           (-20.0 0.0)
  end
  begin
     id 25 
     name rhumerus
     direction -0.999976 -0.00330524 0.00603274  
     length 5.5498   
     axis 180 30 90   XYZ
    dof rx ry rz
    limits (-90.0 60.0)
           (-90.0 90.0)
           (-90.0 90.0)
  end
  begin
     id 26 
     name rradius
     direction -1 -4.48967e-011 8.62438e-027   
     length 3.69401   
     axis 180 30 90   XYZ
    dof rx
    limits (-10.0 170.0)
  end
  begin
     id 27 
     name rwrist
     direction -1 -4.4897e-011 9.54866e-027   
     length 1.84701   
     axis -7.69462e-015 -90 -90   XYZ
    dof ry
    limits (-180.0 0.0)
  end
  begin
     id 28
     name rhand
     direction -1 -4.48982e-011 1.90973e-026   
     length 0.638113   
     axis -1.21857e-014 -90 -90   XYZ
    dof rx rz
    limits (-90.0 90.0)
           (-45.0 45.0)
  end
  begin
     id 29
     name rfingers
     direction -1 -4.48936e-011 3.81946e-026   
     length 0.514463   
     axis -2.43714e-014 -90 -90   XYZ
    dof rx
    limits (0.0 90.0)
  end
  begin
     id 30
     name rthumb
     direction -0.707107 -6.34942e-011 0.707107   
     length 0.738669   
     axis -90 -45 -2.85299e-015   XYZ
    dof rx rz
    limits (-45.0 45.0)
           (-45.0 45.0)
  end
:hierarchy
  begin
    root lhipjoint rhipjoint lowerback
    lhipjoint lfemur
    lfemur ltibia
    ltibia lfoot
    lfoot ltoes
    rhipjoint rfemur
    rfemur rtibia
    rtibia rfoot
    rfoot rtoes
    lowerback upperback
    upperback thorax
    thorax lowerneck lclavicle rclavicle
    lowerneck upperneck
    upperneck head
    lclavicle lhumerus
    lhumerus lradius
    lradius lwrist
    lwrist lhand lthumb
    lhand lfingers
    rclavicle rhumerus
    rhumerus rradius
    rradius rwrist
    rwrist rhand rthumb
    rhand rfingers
  end

#!OML:ASF F:\twosubjects\two\Thursday\Session 1\Rory.ASF
:FULLY-SPECIFIED
:DEGREES
128
root 7.50979 18.3526 -9.8809 0.41916 -3.12222 4.65693
lowerback -1.52121 0.383473 -1.8923
upperback 0.53972 0.58475 -2.5719
thorax 1.41438 0.286813 -1.56034
lowerneck -7.42221 -3.85444 -1.36534
upperneck 36.2183 -10.2854 12.9402
head 14.6094 -3.11454 4.11251
rclavicle 2.21148e-015 2.36554e-014
rhumerus -37.0854 -18.7841 -75.9412
rradius 25.2493
rwrist 26.41
rhand -24.7923 24.6235
rfingers 7.12502
rthumb 1.71217 -5.34941
lclavicle 2.21148e-015 2.36554e-014
lhumerus -41.4656 31.1262 64.178
lradius 19.1651
lwrist -31.7114
lhand -12.6768 28.4619
lfingers 7.12502
lthumb 13.4047 58.0106
rfemur -4.75649 5.44584 15.8659
rtibia 21.0136
rfoot -15.4337 -16.4594
rtoes -1.33711
lfemur -6.93054 -2.94506 -19.6041
ltibia 16.3047
lfoot -9.44018 3.61008
ltoes -1.04099
129
root 7.51504 18.3517 -9.8821 0.476991 -3.17799 4.73247
lowerback -1.57306 0.483533 -1.81619
upperback 0.594534 0.721252 -2.63258
thorax 1.50333 0.355743 -1.66107
lowerneck -8.10854 -3.52981 -2.20872
upperneck 36.7234 -10.1405 14.114
head 15.1517 -2.98064 4.83637
rclavicle 2.45996e-015 -1.39149e-015
rhumerus -37.1492 -19.0242 -75.7828
rradius 25.2367
rwrist 26.2532
rhand -25.4709 25.6156
rfingers 7.12502
rthumb 1.05676 -4.36149
lclavicle 2.45996e-015 -1.39149e-015
lhumerus -41.0059 30.7114 64.6957
lradius 19.2745
lwrist -31.3359
lhand -12.3287 28.8914
lfingers 7.12502
lthumb 13.7402 58.4178
rfemur -4.87555 5.31041 15.7264
rtibia 21.0262
rfoot -15.3822 -16.2777
rtoes -1.47636
lfemur -6.96847 -3.00507 -19.7023
ltibia 16.2534
lfoot -9.64908 3.69972
ltoes -0.433174
130
root 7.51896 18.352 -9.88812 0.570181 -3.19824 4.73761
lowerback -1.52661 0.489946 -1.77629
upperback 0.581653 0.725919 -2.5638
thorax 1.46363 0.358254 -1.613
lowerneck -7.51613 -4.29656 -1.5115
upperneck 35.7532 -10.7887 12.767
head 14.4572 -3.38655 3.95939
rclavicle 3.75827e-015 -9.93923e-016
rhumerus -37.1554 -18.8978 -75.621
rradius 25.1621
rwrist 25.89
rhand -25.4007 25.0333
rfingers 7.12502
rthumb 1.12452 -4.94345
lclavicle 3.75827e-015 -9.93923e-016
lhumerus -40.7709 30.46 65.1962
lradius 19.4451
lwrist -30.9274
lhand -12.5511 29.1851
lfingers 7.12502
lthumb 13.5259 58.7258
rfemur -5.03705 5.46291 15.6796
rtibia 21.0565
rfoot -15.5332 -16.2221
rtoes -0.239917
lfemur -7.09375 -3.17115 -19.7031
ltibia 16.2314
lfoot -9.82361 3.82374
ltoes -0.32572
131
root 7.51982 18.3561 -9.8943 0.662061 -3.26781 4.77548
lowerback -1.52271 0.445848 -1.84364
upperback 0.497372 0.664863 -2.51387
thorax 1.37265 0.327211 -1.52589
lowerneck -7.53042 -4.13632 -1.57137
upperneck 36.0107 -10.6644 12.9967
head 14.5949 -3.30331 4.10326
rclavicle -8.85213e-016 8.54774e-015
rhumerus -37.2809 -18.6228 -75.5418
rradius 25.0426
rwrist 25.6933
rhand -24.9647 24.1395
rfingers 7.12502
rthumb 1.54567 -5.83462
lclavicle -8.85213e-016 8.54774e-015
lhumerus -40.8119 30.3775 65.3114
lradius 19.6108
lwrist -30.6344
lhand -12.4221 29.6754
lfingers 7.12502
lthumb 13.6502 59.2078
rfemur -5.22258 5.54446 15.5962
rtibia 21.1052
rfoot -15.677 -16.0426
rtoes 1.07957
lfemur -7.17184 -3.24132 -19.7448
ltibia 16.1987
lfoot -9.65924 3.97436
ltoes -0.15927
132
root 7.52046 18.3585 -9.89915 0.755447 -3.38381 4.91733
lowerback -1.55858 0.446074 -1.94555
upperback 0.427206 0.666999 -2.57901
thorax 1.32053 0.327918 -1.53562
lowerneck -7.35252 -4.07362 -1.41726
upperneck 35.8818 -10.5357 12.8931
head 14.4582 -3.25214 4.04466
rclavicle 1.32689e-014 -1.33186e-014
rhumerus -37.4388 -18.6156 -75.5104
rradius 24.9776
rwrist 25.7136
rhand -25.3886 25.3147
rfingers 7.12502
rthumb 1.1363 -4.66207
lclavicle 1.32689e-014 -1.33186e-014
lhumerus -40.8552 30.2316 65.3677
lradius 19.942
lwrist -30.349
lhand -12.1449 30.2111
lfingers 7.12502
lthumb 13.9174 59.7253
rfemur -5.4051 5.46195 15.4157
rtibia 21.1625
rfoot -15.583 -15.9348
rtoes 0.411229
lfemur -7.24025 -3.18707 -19.9117
ltibia 16.1578
lfoot -9.4449 4.08399
ltoes -0.459353
